<svg xmlns="http://www.w3.org/2000/svg" viewBox="0 0 427.84 53.83"><defs><style>.cls-1{fill:#fff;}</style></defs><g id="Layer_2" data-name="Layer 2"><g id="Layer_1-2" data-name="Layer 1"><path class="cls-1" d="M0,.72H21.84C33.6.72,39.69,6.06,39.69,14c0,6-4,10.16-9.79,11.36v.51A12.17,12.17,0,0,1,41.74,38.44c0,8.46-6.65,14.65-18.24,14.65H0ZM19.67,22.25c4.14,0,7.11-2.15,7.11-5.83,0-3.48-2.69-5.65-6.91-5.65H12.66V22.25Zm.81,20.64c5.48,0,8-2.2,8-5.91,0-4-3-6.57-7.8-6.57h-8V42.89Z"/><path class="cls-1" d="M53.84,53.09H41.33V.72H53.84Z"/><path class="cls-1" d="M53.77,33.58c0-12.12,7.5-20.28,19.85-20.28s19.84,8.16,19.84,20.28S86,53.83,73.62,53.83,53.77,45.67,53.77,33.58Zm27-.08c0-6.52-2.56-10.94-7-10.94S66.51,27,66.51,33.5s2.56,10.9,7.18,10.9S80.73,40,80.73,33.5Z"/><path class="cls-1" d="M91.88,33.58c0-12.12,7.5-20.28,19.85-20.28s19.84,8.16,19.84,20.28-7.49,20.25-19.84,20.25S91.88,45.67,91.88,33.58Zm27-.08c0-6.52-2.56-10.94-7-10.94-4.63,0-7.19,4.42-7.19,10.94s2.56,10.9,7.19,10.9C116.28,44.4,118.84,40,118.84,33.5Z"/><path class="cls-1" d="M130.15,33.48c0-13.86,7.44-20.18,15.65-20.18a11.4,11.4,0,0,1,11.1,7.24h.25V.72h12.51V53.09H157.28V46.72h-.38a11.45,11.45,0,0,1-11.05,6.93C137.18,53.65,130.15,46.85,130.15,33.48Zm27.29,0c0-6.42-2.66-10.38-7.24-10.38S143,27.13,143,33.45s2.58,10.46,7.21,10.46S157.44,39.82,157.44,33.45Z"/><path class="cls-1" d="M205.13,19.69c-.64-5.24-4.4-8.59-10.15-8.59-7.65,0-12.25,5.8-12.25,15.8,0,10.41,4.71,15.81,12.17,15.81,5.55,0,9.34-3,10.23-8l12.79.07C217,44,209,53.81,194.65,53.81c-14.22,0-24.84-9.67-24.84-26.91S180.68,0,194.65,0c12.66,0,22,7.16,23.27,19.69Z"/><path class="cls-1" d="M216.41,33.58c0-12.12,7.49-20.28,19.85-20.28s19.84,8.16,19.84,20.28-7.49,20.25-19.84,20.25S216.41,45.67,216.41,33.58Zm27-.08c0-6.52-2.55-10.94-7-10.94-4.63,0-7.18,4.42-7.18,10.94s2.55,10.9,7.18,10.9C240.81,44.4,243.36,40,243.36,33.5Z"/><path class="cls-1" d="M268.54,53.09H256V13.81h11.89V21h.44c1.74-4.78,6.13-7.72,11.94-7.72,8.26,0,13.66,5.91,13.63,14.75v25h-12.5V30.51c0-4.35-2.33-7-6.3-7s-6.57,2.66-6.59,7.14Z"/><path class="cls-1" d="M306.28,53.09H293.77V13.81h11.9V21h.43c1.74-4.78,6.14-7.72,11.94-7.72,8.26,0,13.66,5.91,13.64,14.75v25H319.17V30.51c0-4.35-2.33-7-6.29-7s-6.57,2.66-6.6,7.14Z"/><path class="cls-1" d="M330,33.6c0-12.17,7.62-20.3,19.49-20.3,11.15,0,19,7.11,19,20.05v3.12H342.34v.33c0,4.81,3,8,7.77,8,3.28,0,5.83-1.41,6.8-4l11.49.33c-1.43,7.73-8.21,12.71-18.52,12.71C337.53,53.83,330,46.19,330,33.6Zm26.88-4.39a6.8,6.8,0,0,0-7.14-6.88,7.16,7.16,0,0,0-7.41,6.88Z"/><path class="cls-1" d="M367,33.58c0-12,7.46-20.28,19.82-20.28,10.92,0,18,6.29,18.25,16H393.34c-.49-4-2.82-6.45-6.4-6.45-4.37,0-7.26,3.71-7.26,10.64s2.87,10.69,7.26,10.69c3.43,0,5.94-2.28,6.4-6.44H405c-.33,9.71-7.18,16.13-18.23,16.13C374.36,53.83,367,45.57,367,33.58Z"/><path class="cls-1" d="M427.13,23H420V40.74c0,2.33,1.15,3.14,3.17,3.14A13.66,13.66,0,0,0,426,43.5l1.89,9a25.92,25.92,0,0,1-6.39,1.12c-8.82.41-14-3.58-13.91-11.53V23h-5.19V13.81h5.19V4.4H420v9.41h7.09Z"/></g></g></svg>