<svg xmlns="http://www.w3.org/2000/svg" viewBox="0 0 33.65 62.95"><g id="Layer_2" data-name="Layer 2"><g id="Layer_1-2" data-name="Layer 1"><path d="M28.9,11.65c2.3-1.4,6.2-3.8,4.2-7.7C30.2-1.55,7.4-.35,3.3,1.85c-.8.4-3.2,1.7-3.3,4A3.75,3.75,0,0,0,1.5,9c1.2.9,4,2.7,4.3,3,2,1.7,2.1,4,2,7.7V49c-.1,4.6-.1,8.9,2.6,11.6,1.6,1.6,3.9,2.4,7,2.4q6.15,0,8.1-5.1c1-2.7,1-6.2,1-10V18.05C26.3,14.25,26.3,13.25,28.9,11.65ZM12.7,50.55a42,42,0,0,1,0-4.2,1.65,1.65,0,1,1,3.3.1c-.1,2.9-.1,3.9-.1,3.9a1.83,1.83,0,0,1-1.6,1.8h-.1A1.63,1.63,0,0,1,12.7,50.55Zm2.4,6.3a1.7,1.7,0,1,1,1.7-1.7A1.69,1.69,0,0,1,15.1,56.85Zm2-25.3a12.34,12.34,0,0,1-5.7-1.1,12,12,0,0,1,5.7-1.1,12.34,12.34,0,0,1,5.7,1.1A12.69,12.69,0,0,1,17.1,31.55ZM23,18.15v8.9a18.46,18.46,0,0,0-6-.9,18.89,18.89,0,0,0-6,.9v-7.3a16.54,16.54,0,0,0-.9-7.3,32.35,32.35,0,0,0,5.5.4,27.46,27.46,0,0,0,5.7-.5,1.75,1.75,0,0,0,1.4-1.9,1.75,1.75,0,0,0-1.9-1.4c-14.1,1.2-17.4-2.6-17.6-3,0,0,.2-.4,1.5-1.1,4.5-2.4,23.9-1.8,25.2.7.4.8.1,1.4-3,3.2C22.8,11.45,22.9,14.25,23,18.15Z"/></g></g></svg>