<svg xmlns="http://www.w3.org/2000/svg" viewBox="0 0 56.47 47.32"><g id="Layer_2" data-name="Layer 2"><g id="Layer_1-2" data-name="Layer 1"><path d="M32,11.5C32,5.15,24.84,0,16,0S0,5.15,0,11.5,7.16,23,16,23,32,17.85,32,11.5ZM4,14c.26-.48,4.34,2.77,11,3,6.48.22,10.73-2.58,11-2s-4.23,4.83-10,5C9.11,20.21,3.69,14.57,4,14Z"/><path d="M55.78,11.14c-2.09-4.49-8.31-6-13.89-3.43s-8.42,8.34-6.33,12.84,8.31,6,13.89,3.43S57.87,15.63,55.78,11.14ZM48.47,21.85c-4.29,2.17-9.57-.22-9.56-.72s3.65.69,7.94-1.11,5.94-5,6.29-4.65S52.06,20,48.47,21.85Z"/><path d="M27.9,26c-7.79,1.09-13.44,6.71-12.63,12.55s7.79,9.7,15.58,8.62,13.44-6.71,12.63-12.55S35.68,24.88,27.9,26Zm2.56,18.4c-6.05,1-11.55-3.48-11.35-4s4.18,2,10.08,1.41c5.74-.59,9.13-3.69,9.44-3.19S35.53,43.5,30.46,44.37Z"/></g></g></svg>